<svg version="1.1" id="Layer_1" xmlns="http://www.w3.org/2000/svg" xmlns:xlink="http://www.w3.org/1999/xlink" x="0px" y="0px" class="block h-9 w-auto" viewBox="0 0 317.4 94.1" style="enable-background:new 0 0 317.4 94.1;" xml:space="preserve">
<style type="text/css">
	.st0{fill:url(#SVGID_1_);}
	.st1{fill:#00A2E8;}
</style>
<linearGradient id="SVGID_1_" gradientUnits="userSpaceOnUse" x1="0" y1="120.1149" x2="112.82" y2="120.1149" gradientTransform="matrix(1 0 0 -1 0 167.17)">
	<stop offset="0" style="stop-color:#EA4297"></stop>
	<stop offset="1" style="stop-color:#00A2E8"></stop>
</linearGradient>
<path class="st0" d="M95.6,5.6L98,9l-5.5,5.1c-4-4.3-8.8-7.6-14.3-10C71.8,1.4,64.7,0,56.9,0c-4.6,0-9,0.5-13.2,1.5
	C39.4,2.5,35.5,4,31.7,6c-3.7,2-7.1,4.4-10,7.2s-5.5,6-7.6,9.6c-2.1,3.6-3.8,7.4-4.8,11.5c-1.1,4-1.6,8.3-1.6,12.8l0,1.4l0.1,1.4h0
	c1.1-1.2,3.3-3.4,4.7-4.8c0.1-3.3,0.6-6.5,1.4-9.5c1-3.6,2.4-7,4.3-10.2c1.9-3.2,4.2-6.1,6.9-8.6c2.6-2.5,5.6-4.7,9-6.5
	c3.4-1.8,7-3.2,10.8-4.1c3.8-0.9,7.8-1.4,12.1-1.4C64,4.7,70.5,6,76.2,8.5c4.9,2.1,9.2,5.1,12.8,8.9L63.3,41.2
	c-1.8,1.9-2.3,2.5-3.1,2.5c-0.4-0.1-0.7-0.1-1.1-0.1c-0.2,0-0.3,0-0.5,0c-1.3,0.1-2.6-0.9-3.5-1.8L43.8,30.4c-1.1-1.1-1.3-1.7-1.3-3
	l0-0.1v0v-0.1c0-0.3,0-0.5-0.1-0.8c0.7-0.5,1.4-1,2.2-1.4c1.9-1.1,4-1.9,6.1-2.4c2.2-0.5,4.5-0.8,7-0.8c3.3,0,6.3,0.5,9.1,1.6
	c2.2,0.8,4.3,2,6.2,3.4c1.2-1.1,2.4-2.2,3.6-3.2c-2.5-2-5.2-3.6-8.1-4.6c-3.3-1.2-6.9-1.9-10.8-1.9c-2.9,0-5.6,0.3-8.1,1
	c-2.6,0.6-5,1.6-7.3,2.9c-0.9,0.5-1.8,1.1-2.6,1.7C39,22.2,38.3,22,37.4,22c-2.9,0-5.2,2.3-5.2,5.2l0,0v0v0v0v0v0
	c0,0.9-0.2,2.4-1.2,3.4l-22.2,22c-2.7,2.7-2.4,2.5-4.9,2.4C1.8,55,0,56.8,0,59c0,2.2,1.8,3.9,3.9,3.9s3.9-1.8,3.9-3.9
	c0-0.9,0.2-1.5,0.7-2.2c0.4,2.2,1,4.3,1.7,6.3c1,2.8,2.3,5.5,3.8,8.1c2.1,3.6,4.7,6.8,7.6,9.6c2.9,2.8,6.3,5.2,10,7.2
	c3.7,2,7.7,3.5,11.9,4.5c4.2,1,8.6,1.5,13.1,1.5c7.8,0,14.9-1.4,21.3-4.1c3.2-1.4,6.2-3.1,8.9-5.1c2.7-2,5.1-4.4,7.3-7l1.4-1.7
	l-16.3-15L77.8,63c-5.4,6.3-12,9.4-19.9,9.4c-2.5,0-4.9-0.3-7-0.8c-2.2-0.5-4.2-1.3-6.1-2.4c-1.9-1.1-3.6-2.3-5.1-3.8l0,0
	c-1.5-1.5-2.8-3.2-3.8-5.1c-1.1-1.9-1.9-4-2.4-6.1c-0.5-2.2-0.8-4.5-0.8-7c0-3.1,0.4-6,0.7-9.1L28,43.1c0,0.3-0.1,0.5-0.1,0.8v0
	c-0.1,1-0.1,2.1-0.1,3.2c0,2.9,0.3,5.6,0.9,8.1c0.6,2.6,1.6,5,2.9,7.3s2.8,4.3,4.6,6.1l0,0c1.8,1.8,3.8,3.3,6.1,4.6s4.7,2.2,7.3,2.9
	c2.6,0.6,5.3,1,8.1,1c8.6,0,15.9-3.1,21.9-9.3l9.4,8.7c-1.6,1.7-3.2,3.2-5.1,4.6c-2.4,1.8-5.1,3.3-7.9,4.6
	c-5.8,2.5-12.3,3.8-19.4,3.8c-4.2,0-8.3-0.5-12-1.4c-3.8-0.9-7.4-2.3-10.7-4.1c-3.4-1.8-6.4-4-9-6.5c-2.6-2.5-4.9-5.4-6.9-8.6
	c-1.4-2.3-2.5-4.8-3.4-7.3s-1.5-5.2-1.9-8l-0.1-0.8L33.6,34c1.5-1.5,3.1-1.7,4-1.8l0.1,0c0.1,0,0.1,0,0.2,0l0,0
	c1.1-0.1,2.4,0.9,2.7,1.3l0.8,0.8l10.9,11c1.4,1.3,1.6,2.5,1.7,3.4c0,2.8,2.3,5,5.1,5c2.8,0,5.1-2.3,5.1-5.1c0.4-2,1.3-2.8,2.8-4.2
	l35.6-28.8l3,4.3l7.3-19.7L95.6,5.6z"></path>
<path class="st1" d="M101.8,43c2.4,0,5,1.4,6.8,3.6l4.1-5c-8.3-9.2-26.2-3.7-25.6,9.1c-0.5,13.4,17.2,18.6,25.7,9l-4.2-4.5
	C97.4,66.7,86.8,44.9,101.8,43z"></path>
<path class="st1" d="M128.1,37.2h-12.3v27.3h7.1v-7.6c0.1,0,5.2,0,5.3,0l4,7.6h8.1l-5.7-8.9C143.3,50.7,140,36,128.1,37.2z
	 M122.9,51.2v-8.4c3.4,0.1,10.1-1,9.7,4.1C133,52.2,126.4,51.2,122.9,51.2z"></path>
<path class="st1" d="M152.9,37.2l-11.7,27.3h7.3l1.9-4.8h11.8l1.9,4.8h7.6l-11.5-27.3H152.9z M152.6,54.2l3.8-9.7l3.7,9.7H152.6z"></path>
<polygon class="st1" points="196.5,41.8 196.5,37.2 173.1,37.2 173.1,42.9 187,42.9 172.5,59.8 172.5,64.5 196.7,64.5 196.7,58.7 
	182.1,58.7 "></polygon>
<polygon class="st1" points="211.2,48.9 204.8,37.2 197.6,37.2 207.7,55.9 207.7,64.5 214.8,64.5 214.8,55.7 232.7,19.8 225.6,19.8 
	"></polygon>
<polygon class="st1" points="237.6,23.7 243,23.7 243,38 247.8,38 247.8,23.7 253.3,23.7 253.3,19.8 237.6,19.8 "></polygon>
<rect x="255.2" y="19.8" class="st1" width="4.8" height="18.2"></rect>
<polygon class="st1" points="267.7,26.5 272,36.2 275.1,36.2 279.3,26.5 279.4,38 283.6,38 283.6,19.8 278.4,19.8 273.5,30.4 
	268.7,19.8 263.5,19.8 263.5,38 267.7,38 "></polygon>
<polygon class="st1" points="301.8,34.2 291.9,34.2 291.9,30.8 300.6,30.8 300.6,27 291.9,27 291.9,23.6 301.5,23.6 301.5,19.8 
	287.1,19.8 287.1,38 301.8,38 "></polygon>
<path class="st1" d="M242.9,51.1c0-0.8,0.8-1.2,1.9-1.2c1.5,0,4,0.9,5.9,2l1.8-3.8c-4.1-3.1-14.8-3-14.6,3.5c0,6.5,9.6,4.6,9.6,7.7
	c-1.1,3.3-6.6,0.6-8.9-1.3l-1.9,3.7c4.1,3.8,15.6,4.7,15.7-2.7C252.5,52.4,242.9,54.1,242.9,51.1z"></path>
<polygon class="st1" points="268.9,46.2 253.3,46.2 253.3,50.1 258.7,50.1 258.7,64.4 263.5,64.4 263.5,50.1 268.9,50.1 "></polygon>
<path class="st1" d="M274.8,46.2L267,64.4h4.9l1.3-3.2h7.9l1.2,3.2h5.1l-7.6-18.2H274.8z M274.6,57.6l2.5-6.5l2.5,6.5H274.6z"></path>
<polygon class="st1" points="285.5,50.1 290.9,50.1 290.9,64.4 295.6,64.4 295.6,50.1 301.1,50.1 301.1,46.2 285.5,46.2 "></polygon>
<path class="st1" d="M307.8,51.1c0-0.8,0.8-1.2,1.9-1.2c1.5,0,4,0.9,5.9,2l1.8-3.8c-4.1-3.1-14.8-3-14.6,3.5c0,6.5,9.6,4.6,9.6,7.7
	c-1.1,3.3-6.6,0.6-8.9-1.3l-1.9,3.7c4.1,3.8,15.6,4.7,15.7-2.7C317.4,52.4,307.8,54.1,307.8,51.1z"></path>
</svg>